<?xml version="1.0" encoding="UTF-8"?><svg xmlns="http://www.w3.org/2000/svg" xmlns:xlink="http://www.w3.org/1999/xlink" fill-opacity="1" color-rendering="auto" color-interpolation="auto" text-rendering="auto" stroke="black" stroke-linecap="square" width="627" stroke-miterlimit="10" shape-rendering="auto" stroke-opacity="1" fill="black" stroke-dasharray="none" font-weight="normal" stroke-width="1" height="299" font-family="'Dialog'" font-style="normal" stroke-linejoin="miter" font-size="12px" stroke-dashoffset="0" image-rendering="auto">
  <!--Generated by ySVG 2.5-->
  <defs id="genericDefs"/>
  <g>
    <defs id="defs1">
      <clipPath clipPathUnits="userSpaceOnUse" id="clipPath1">
        <path d="M0 0 L627 0 L627 299 L0 299 L0 0 Z"/>
      </clipPath>
      <clipPath clipPathUnits="userSpaceOnUse" id="clipPath2">
        <path d="M1556 554 L2183 554 L2183 853 L1556 853 L1556 554 Z"/>
      </clipPath>
    </defs>
    <g fill="white" text-rendering="geometricPrecision" shape-rendering="geometricPrecision" transform="translate(-1556,-554)" stroke="white">
      <rect x="1556" width="627" height="299" y="554" clip-path="url(#clipPath2)" stroke="none"/>
    </g>
    <g text-rendering="geometricPrecision" stroke-miterlimit="1.45" shape-rendering="geometricPrecision" transform="matrix(1,0,0,1,-1556,-554)" stroke-linecap="butt">
      <rect x="1989" y="736.375" clip-path="url(#clipPath2)" fill="none" width="179" rx="4" ry="4" height="101"/>
      <text x="2035.2402" xml:space="preserve" y="791.0293" clip-path="url(#clipPath2)" font-family="sans-serif" stroke="none">Target system</text>
    </g>
    <g fill="rgb(153,204,255)" text-rendering="geometricPrecision" shape-rendering="geometricPrecision" transform="matrix(1,0,0,1,-1556,-554)" stroke="rgb(153,204,255)">
      <rect x="1780" y="569.375" clip-path="url(#clipPath2)" width="179" rx="4" ry="4" height="101" stroke="none"/>
    </g>
    <g text-rendering="geometricPrecision" stroke-miterlimit="1.45" shape-rendering="geometricPrecision" transform="matrix(1,0,0,1,-1556,-554)" stroke-linecap="butt">
      <rect x="1780" y="569.375" clip-path="url(#clipPath2)" fill="none" width="179" rx="4" ry="4" height="101"/>
      <text x="1794.8926" xml:space="preserve" y="617.0449" clip-path="url(#clipPath2)" font-family="sans-serif" stroke="none">1. Configuration parsing:</text>
      <text x="1824.9541" xml:space="preserve" y="631.0137" clip-path="url(#clipPath2)" font-family="sans-serif" stroke="none">ConfReader.py</text>
    </g>
    <g fill="rgb(153,204,255)" text-rendering="geometricPrecision" shape-rendering="geometricPrecision" transform="matrix(1,0,0,1,-1556,-554)" stroke="rgb(153,204,255)">
      <rect x="1989" y="569.375" clip-path="url(#clipPath2)" width="179" rx="4" ry="4" height="101" stroke="none"/>
    </g>
    <g text-rendering="geometricPrecision" stroke-miterlimit="1.45" shape-rendering="geometricPrecision" transform="matrix(1,0,0,1,-1556,-554)" stroke-linecap="butt">
      <rect x="1989" y="569.375" clip-path="url(#clipPath2)" fill="none" width="179" rx="4" ry="4" height="101"/>
      <text x="2016.5957" xml:space="preserve" y="617.0449" clip-path="url(#clipPath2)" font-family="sans-serif" stroke="none">2. Building software:</text>
      <text x="2048.0137" xml:space="preserve" y="631.0137" clip-path="url(#clipPath2)" font-family="sans-serif" stroke="none">Builder.py</text>
    </g>
    <g fill="rgb(153,204,255)" text-rendering="geometricPrecision" shape-rendering="geometricPrecision" transform="matrix(1,0,0,1,-1556,-554)" stroke="rgb(153,204,255)">
      <rect x="1571" y="736.375" clip-path="url(#clipPath2)" width="179" rx="4" ry="4" height="101" stroke="none"/>
    </g>
    <g text-rendering="geometricPrecision" stroke-miterlimit="1.45" shape-rendering="geometricPrecision" transform="matrix(1,0,0,1,-1556,-554)" stroke-linecap="butt">
      <rect x="1571" y="736.375" clip-path="url(#clipPath2)" fill="none" width="179" rx="4" ry="4" height="101"/>
      <text x="1600.8223" xml:space="preserve" y="784.0449" clip-path="url(#clipPath2)" font-family="sans-serif" stroke="none">3. Testing software:</text>
      <text x="1596.709" xml:space="preserve" y="798.0137" clip-path="url(#clipPath2)" font-family="sans-serif" stroke="none">Not yet implemented</text>
    </g>
    <g fill="rgb(153,204,255)" text-rendering="geometricPrecision" shape-rendering="geometricPrecision" transform="matrix(1,0,0,1,-1556,-554)" stroke="rgb(153,204,255)">
      <rect x="1780" y="736.375" clip-path="url(#clipPath2)" width="179" rx="4" ry="4" height="101" stroke="none"/>
    </g>
    <g text-rendering="geometricPrecision" stroke-miterlimit="1.45" shape-rendering="geometricPrecision" transform="matrix(1,0,0,1,-1556,-554)" stroke-linecap="butt">
      <rect x="1780" y="736.375" clip-path="url(#clipPath2)" fill="none" width="179" rx="4" ry="4" height="101"/>
      <text x="1801.6484" xml:space="preserve" y="784.0449" clip-path="url(#clipPath2)" font-family="sans-serif" stroke="none">4. Deploying software:</text>
      <text x="1833.0664" xml:space="preserve" y="798.0137" clip-path="url(#clipPath2)" font-family="sans-serif" stroke="none">Deployer.py</text>
      <rect x="1571" y="569.375" clip-path="url(#clipPath2)" fill="none" width="179" rx="4" ry="4" height="101"/>
      <text x="1604.0859" xml:space="preserve" y="617.0449" clip-path="url(#clipPath2)" font-family="sans-serif" stroke="none">science-build-rules</text>
      <text x="1630.0283" xml:space="preserve" y="631.0137" clip-path="url(#clipPath2)" font-family="sans-serif" stroke="none">repository</text>
      <path fill="none" d="M1959.024 619.875 L1980.9806 619.875" clip-path="url(#clipPath2)"/>
      <path d="M1988.9806 619.875 L1976.9806 614.875 L1979.9806 619.875 L1976.9806 624.875 Z" clip-path="url(#clipPath2)" stroke="none"/>
      <path fill="none" d="M2078.5 670.3933 L2078.5 704.3333 L1660.5 704.3333 L1660.5 728.3746" clip-path="url(#clipPath2)"/>
      <path d="M1660.5 736.3746 L1665.5 724.3746 L1660.5 727.3746 L1655.5 724.3746 Z" clip-path="url(#clipPath2)" stroke="none"/>
      <path fill="none" d="M1750.024 786.875 L1771.9806 786.875" clip-path="url(#clipPath2)"/>
      <path d="M1779.9806 786.875 L1767.9806 781.875 L1770.9806 786.875 L1767.9806 791.875 Z" clip-path="url(#clipPath2)" stroke="none"/>
      <path fill="none" d="M1959.024 786.875 L1980.9806 786.875" clip-path="url(#clipPath2)"/>
      <path d="M1988.9806 786.875 L1976.9806 781.875 L1979.9806 786.875 L1976.9806 791.875 Z" clip-path="url(#clipPath2)" stroke="none"/>
      <path fill="none" d="M1750.024 619.875 L1771.9806 619.875" clip-path="url(#clipPath2)"/>
      <path d="M1779.9806 619.875 L1767.9806 614.875 L1770.9806 619.875 L1767.9806 624.875 Z" clip-path="url(#clipPath2)" stroke="none"/>
    </g>
  </g>
</svg>
